<svg xmlns="http://www.w3.org/2000/svg" xmlns:xlink="http://www.w3.org/1999/xlink" width="3388" height="1157" overflow="hidden"><defs><clipPath id="clip0"><rect width="3388" height="1157" x="136" y="736"/></clipPath></defs><g clip-path="url(#clip0)" transform="translate(-136 -736)"><path fill="none" fill-rule="evenodd" stroke="#000" stroke-miterlimit="8" stroke-width="6.875" d="M148.5 977.703C185.695 962.161 320.366 877.297 505.907 880.594 691.449 883.891 1362.47 1538.16 1612.24 1540.49 1862.02 1542.82 2065.33 1179.78 2355.03 1174.85 2644.74 1169.92 2921.69 896.185 3157.7 897.829 3404.78 888.404 3368.38 921.053 3407.5 931.885"/><path fill="none" fill-rule="evenodd" stroke="#2F5597" stroke-miterlimit="8" stroke-width="6.875" d="M0 0 2575.75 5.23294" transform="matrix(-1 0 0 1 3157.25 897.5)"/><text fill="#2F5597" font-family="Consolas,Consolas_MSFontService,sans-serif" font-size="83" font-weight="400" transform="matrix(1 0 0 1 1986.99 840)">V<tspan x="45.26" y="20" font-size="55">t</tspan><tspan x="-1801.46" y="379" fill="#000" font-family="Calibri,Calibri_MSFontService,sans-serif" font-size="64" font-style="italic" font-weight="700">Pseudocode</tspan><tspan x="-1801.46" y="474" fill="#548235" font-size="83">L</tspan><tspan x="-1710.94" y="474" fill="#000" font-size="83">= 0</tspan><tspan x="-1801.46" y="573" fill="#000" font-size="83">While</tspan><tspan x="-1529.9" y="573" font-size="83">V</tspan><tspan x="-1484.64" y="593" font-size="55">t</tspan><tspan x="-1423.91" y="573" fill="#000" font-size="83">&lt; V</tspan><tspan x="-1288.13" y="593" fill="#000" font-size="55">r</tspan><tspan x="-1212.51" y="573" fill="#000" font-size="83">* M:</tspan><tspan x="-1636.46" y="672" fill="#000" font-size="83">(</tspan>V<tspan x="-1545.94" y="692" font-size="55">t</tspan><tspan x="-1515.58" y="672" fill="#000" font-size="83">, </tspan><tspan x="-1425.06" y="672" fill="#C55A11" font-size="83">A</tspan><tspan x="-1379.8" y="692" fill="#C55A11" font-size="55">t</tspan><tspan x="-1349.43" y="672" fill="#000" font-size="83">) = </tspan><tspan x="-1168.39" y="672" fill="#000" font-size="83">PolyVol</tspan><tspan x="-851.568" y="672" fill="#000" font-size="83">(</tspan><tspan x="-806.307" y="672" fill="#548235" font-size="83">L</tspan><tspan x="-761.047" y="672" fill="#000" font-size="83">)</tspan><tspan x="-1636.46" y="771" fill="#548235" font-size="83">L</tspan><tspan x="-1545.94" y="771" fill="#000" font-size="83">= </tspan><tspan x="-1455.42" y="771" fill="#548235" font-size="83">L</tspan><tspan x="-1364.9" y="771" fill="#000" font-size="83">+ (</tspan>V<tspan x="-1183.86" y="791" font-size="55">t</tspan><tspan x="-1123.13" y="771" fill="#000" font-size="83">-</tspan><tspan x="-1047.51" y="771" fill="#000" font-size="83">V</tspan><tspan x="-1002.24" y="791" fill="#000" font-size="55">r</tspan><tspan x="-971.88" y="771" fill="#000" font-size="83">) / </tspan><tspan x="-790.838" y="771" fill="#C55A11" font-size="83">A</tspan><tspan x="-745.578" y="791" fill="#C55A11" font-size="55">t</tspan><tspan x="-1801.46" y="936" fill="#7030A0" font-size="83">D</tspan><tspan x="-1710.94" y="936" fill="#000" font-size="83">= </tspan><tspan x="-1620.42" y="936" fill="#7030A0" font-size="83">D</tspan><tspan x="-1529.9" y="936" fill="#000" font-size="83">-</tspan><tspan x="-1439.38" y="936" fill="#548235" font-size="83">L</tspan><tspan x="-121.126" y="4" fill="#C55A11" font-size="83">A</tspan><tspan x="-75.865" y="24" fill="#C55A11" font-size="55">t</tspan></text><path fill="#548235" d="M1577.94 902.5 1577.94 1038.24 1571.06 1038.24 1571.06 902.5ZM1588.25 1033.65 1574.5 1061.15 1560.75 1033.65Z"/><path fill="#C55A11" d="M6.54356e-07-3.4375 1895.86-3.43714 1895.86 3.43786-6.54356e-07 3.4375ZM-2.61742e-06 13.75-13.75-2.61742e-06 2.61742e-06-13.75 13.75 2.61742e-06ZM1895.86-13.7496 1909.61 0.00036351 1895.86 13.7504 1882.11 0.000358275Z" transform="matrix(-1 0 0 1 2725.36 1027.5)"/><text fill="#548235" font-family="Consolas,Consolas_MSFontService,sans-serif" font-size="83" font-weight="400" transform="matrix(1 0 0 1 1616.69 996)">L</text><path fill="none" fill-rule="evenodd" stroke="#2F5597" stroke-miterlimit="8" stroke-width="6.875" d="M0 0 1890.65 0.000360892" transform="matrix(-1 0 0 1 2725.15 1058.5)"/><path fill="#C55A11" d="M4.81633e-07-3.4375 2575.75-3.43714 2575.75 3.43786-4.81633e-07 3.4375ZM-1.92653e-06 13.75-13.75-1.92653e-06 1.92653e-06-13.75 13.75 1.92653e-06ZM2575.75-13.7496 2589.5 0.000362819 2575.75 13.7504 2562 0.000358966Z" transform="matrix(-1 0 0 1 3153.25 874.5)"/><path fill="#548235" d="M1726.94 901.5 1726.94 1154.65 1720.06 1154.65 1720.06 901.5ZM1737.25 1150.07 1723.5 1177.57 1709.75 1150.07Z"/><path fill="#C55A11" d="M9.56734e-07-3.4375 1296.67-3.43714 1296.67 3.43786-9.56734e-07 3.4375ZM-3.82694e-06 13.75-13.75-3.82694e-06 3.82694e-06-13.75 13.75 3.82694e-06ZM1296.67-13.7496 1310.42 0.000364719 1296.67 13.7504 1282.92 0.000357065Z" transform="matrix(-1 0 0 1 2285.17 1146.5)"/><path fill="none" fill-rule="evenodd" stroke="#2F5597" stroke-miterlimit="8" stroke-width="6.875" d="M0 0 1291.46 0.000360892" transform="matrix(-1 0 0 1 2284.96 1177.5)"/><text fill="#548235" font-family="Consolas,Consolas_MSFontService,sans-serif" font-size="83" font-weight="400" transform="matrix(1 0 0 1 1741.75 1083)">L</text><path fill="#548235" d="M1839.94 901.5 1839.94 1224.34 1833.06 1224.34 1833.06 901.5ZM1850.25 1219.76 1836.5 1247.26 1822.75 1219.76Z"/><text fill="#548235" font-family="Consolas,Consolas_MSFontService,sans-serif" font-size="83" font-weight="400" transform="matrix(1 0 0 1 1864.95 1139)">L<tspan x="394.984" y="187" font-size="83">L</tspan><tspan x="459.151" y="187" fill="#000" font-family="Calibri,Calibri_MSFontService,sans-serif" font-size="83">= </tspan><tspan x="519.307" y="187" fill="#000" font-family="Calibri,Calibri_MSFontService,sans-serif" font-size="83">amount</tspan><tspan x="800.999" y="187" fill="#000" font-family="Calibri,Calibri_MSFontService,sans-serif" font-size="83">to</tspan><tspan x="890.145" y="187" fill="#000" font-family="Calibri,Calibri_MSFontService,sans-serif" font-size="83">be</tspan><tspan x="993.843" y="187" fill="#000" font-family="Calibri,Calibri_MSFontService,sans-serif" font-size="83">lowered</tspan><tspan x="394.984" y="286" fill="#000" font-size="83">V</tspan><tspan x="440.245" y="306" fill="#000" font-size="55">r</tspan><tspan x="489.515" y="286" fill="#000" font-family="Calibri,Calibri_MSFontService,sans-serif" font-size="83">= </tspan><tspan x="549.672" y="286" fill="#000" font-family="Calibri,Calibri_MSFontService,sans-serif" font-size="83">rain</tspan><tspan x="697.507" y="286" fill="#000" font-family="Calibri,Calibri_MSFontService,sans-serif" font-size="83">volume</tspan><tspan x="394.984" y="385" fill="#2F5597" font-size="83">V</tspan><tspan x="440.245" y="405" fill="#2F5597" font-size="55">t</tspan><tspan x="489.515" y="385" fill="#000" font-family="Calibri,Calibri_MSFontService,sans-serif" font-size="83">= </tspan><tspan x="549.672" y="385" fill="#000" font-family="Calibri,Calibri_MSFontService,sans-serif" font-size="83">temporary</tspan><tspan x="922.182" y="385" fill="#000" font-family="Calibri,Calibri_MSFontService,sans-serif" font-size="83">volume</tspan><tspan x="394.984" y="484" fill="#C55A11" font-size="83">A</tspan><tspan x="440.245" y="504" fill="#C55A11" font-size="55">t</tspan><tspan x="489.515" y="484" fill="#000" font-family="Calibri,Calibri_MSFontService,sans-serif" font-size="83">= </tspan><tspan x="549.672" y="484" fill="#000" font-family="Calibri,Calibri_MSFontService,sans-serif" font-size="83">temporary</tspan><tspan x="922.182" y="484" fill="#000" font-family="Calibri,Calibri_MSFontService,sans-serif" font-size="83">area</tspan><tspan x="394.984" y="583" fill="#000" font-size="83">M</tspan><tspan x="459.151" y="583" fill="#000" font-family="Calibri,Calibri_MSFontService,sans-serif" font-size="83">= </tspan><tspan x="519.307" y="583" fill="#000" font-family="Calibri,Calibri_MSFontService,sans-serif" font-size="83">Margin</tspan><tspan x="777.143" y="583" fill="#000" font-family="Calibri,Calibri_MSFontService,sans-serif" font-size="83">to</tspan><tspan x="866.288" y="583" fill="#000" font-family="Calibri,Calibri_MSFontService,sans-serif" font-size="83">iterate</tspan><tspan x="1105.54" y="583" fill="#000" font-family="Calibri,Calibri_MSFontService,sans-serif" font-size="83">(default 1.01)</tspan><tspan x="394.984" y="682" fill="#7030A0" font-size="83">D</tspan><tspan x="459.151" y="682" fill="#000" font-family="Calibri,Calibri_MSFontService,sans-serif" font-size="83">= Bluespot </tspan><tspan x="833.265" y="682" fill="#000" font-family="Calibri,Calibri_MSFontService,sans-serif" font-size="83">depth</tspan></text><path fill="none" fill-rule="evenodd" stroke="#000" stroke-miterlimit="8" stroke-width="6.875" d="M0 0 945.185 0.000360892" transform="matrix(-1 0 0 1 2076.69 1278.5)"/><text font-family="Consolas,Consolas_MSFontService,sans-serif" font-size="83" font-weight="400" transform="matrix(1 0 0 1 1359.87 1351)">V<tspan x="45.261" y="20" font-size="55">r</tspan></text><path fill="none" fill-rule="evenodd" stroke="#7030A0" stroke-miterlimit="8" stroke-width="6.875" d="M1661.5 1276.5 1662.06 1531.29"/><path fill="none" fill-rule="evenodd" stroke="#7030A0" stroke-miterlimit="8" stroke-width="6.875" d="M1695.5 1276.5 1696.34 1524.18"/><path fill="none" fill-rule="evenodd" stroke="#7030A0" stroke-miterlimit="8" stroke-width="6.875" d="M1729.5 1279.5 1729.5 1513.36"/><text fill="#7030A0" font-family="Consolas,Consolas_MSFontService,sans-serif" font-size="83" font-weight="400" transform="matrix(1 0 0 1 1749.21 1418)">D<tspan x="356.404" y="-418" fill="#2F5597" font-size="83">V</tspan><tspan x="401.665" y="-398" fill="#2F5597" font-size="55">t</tspan><tspan x="235.279" y="-414" fill="#C55A11" font-size="83">A</tspan><tspan x="280.539" y="-394" fill="#C55A11" font-size="55">t</tspan><tspan x="483.582" y="-300" fill="#2F5597" font-size="83">V</tspan><tspan x="528.842" y="-280" fill="#2F5597" font-size="55">t</tspan><tspan x="362.456" y="-296" fill="#C55A11" font-size="83">A</tspan><tspan x="407.717" y="-276" fill="#C55A11" font-size="55">t</tspan></text></g></svg>